<mxfile host="app.diagrams.net" modified="2023-09-14T08:13:16.789Z" agent="Mozilla/5.0 (Macintosh; Intel Mac OS X 10_15_7) AppleWebKit/537.36 (KHTML, like Gecko) Chrome/116.0.0.0 Safari/537.36" version="21.7.2" etag="ussCvKaC80-MbbeBXobL" type="github">
  <diagram name="Страница — 1" id="Yi0TKhcOTMXt4n0nSECJ">
    <mxGraphModel>
      <root>
        <mxCell id="0" />
        <mxCell id="1" parent="0" />
      </root>
    </mxGraphModel>
  </diagram>
</mxfile>
